PathFileType	4	(X/Y/Z)	walk-thru1-2-TP.trc
DataRate	CameraRate	NumFrames	NumMarkers	Units	OrigDataRate	OrigDataStartFrame	OrigNumFrames
120.00	120.00	       4	60	mm	120.00	189	       503
Frame#	Time	Top.Head			Front.Head			Rear.Head			Jaw			C7			R.Clavicle			L.Clavicle			R.Shoulder			L.Shoulder			R.Scapula			L.Scapula			R.Scap.Inf			R.Biceps.Lateral			R.Elbow			R.Elbow.Medial			R.Forearm			R.Ulna			R.Radius			R.Wrist			R.Thumb.M1			R.Thumb.M2			R.Thumb.M3			R.Finger3.M1			R.Finger3.M2			R.Finger3.M3			L.Biceps.Lateral			L.Elbow			L.Elbow.Medial			L.Forearm			L.Ulna			L.Radius			L.Wrist			L.Thumb.M1			L.Thumb.M2			L.Thumb.M3			L.Finger3.M1			L.Finger3.M2			L.Finger3.M3			V.Sacral			R.ASIS			L.ASIS			R.Thigh			R.Thigh.Front			R.Knee			R.Knee.Medial			R.Shank			R.Ankle			R.Ankle.Medial			R.Heel			R.Toe			R.MedFoot			L.Thigh			L.Knee			L.Knee.Medial			L.Shank			L.Ankle			L.Ankle.Medial			L.Heel			L.Toe			L.MedFoot			V_mid_ASIS			V_R_Knee_JC			V_L_Knee_JC			V_R_Elbow_JC			V_L_Elbow_JC			V_R_Ankle_JC			V_L_Ankle_JC			V_R_Wrist_JC			V_L_Wrist_JC			V_R_ScaTrpz_1stMC_JC			V_R_1stMC_1stPP_JC			V_R_1stPP_1stDP_JC			V_R_LunCap_3rdMC_JC			V_R_3rdMC_3rdPP_JC			V_R_3rdPP_3rdMP_JC			V_R_3rdMP_3rdDP_JC			V_L_ScaTrpz_1stMC_JC			V_L_1stMC_1stPP_JC			V_L_1stPP_1stDP_JC			V_L_LunCap_3rdMC_JC			V_L_3rdMC_3rdPP_JC			V_L_3rdPP_3rdMP_JC			V_L_3rdMP_3rdPP_JC			V_ROOT_JC			V_R_Hip_JC			V_L_Hip_JC			V_R_GlenHum_JC			V_L_GlenHum_JC			V_ForeHead_Ctr			V_Vertex			V_Sagit_Lambdoid_Suture			V_R_FrontoTemp			V_L_FrontoTemporal			V_R_ParietalOccip			V_L_ParietalOcciptal			V_R_Temporal			V_L_Temporal			V_mid_FrontRearHead			V_mid_RLGlenHumCtrs			V_C7_vert			V_C1_vert			V_Mid_Hip			
		X1	Y1	Z1	X2	Y2	Z2	X3	Y3	Z3	X4	Y4	Z4	X5	Y5	Z5	X6	Y6	Z6	X7	Y7	Z7	X8	Y8	Z8	X9	Y9	Z9	X10	Y10	Z10	X11	Y11	Z11	X12	Y12	Z12	X13	Y13	Z13	X14	Y14	Z14	X15	Y15	Z15	X16	Y16	Z16	X17	Y17	Z17	X18	Y18	Z18	X19	Y19	Z19	X20	Y20	Z20	X21	Y21	Z21	X22	Y22	Z22	X23	Y23	Z23	X24	Y24	Z24	X25	Y25	Z25	X26	Y26	Z26	X27	Y27	Z27	X28	Y28	Z28	X29	Y29	Z29	X30	Y30	Z30	X31	Y31	Z31	X32	Y32	Z32	X33	Y33	Z33	X34	Y34	Z34	X35	Y35	Z35	X36	Y36	Z36	X37	Y37	Z37	X38	Y38	Z38	X39	Y39	Z39	X40	Y40	Z40	X41	Y41	Z41	X42	Y42	Z42	X43	Y43	Z43	X44	Y44	Z44	X45	Y45	Z45	X46	Y46	Z46	X47	Y47	Z47	X48	Y48	Z48	X49	Y49	Z49	X50	Y50	Z50	X51	Y51	Z51	X52	Y52	Z52	X53	Y53	Z53	X54	Y54	Z54	X55	Y55	Z55	X56	Y56	Z56	X57	Y57	Z57	X58	Y58	Z58	X59	Y59	Z59	X60	Y60	Z60	

189	1.567	-491.25427	8.78987	1787.28491	-389.45908	18.00940	1674.38660	-615.97949	2.95408	1687.05957	-432.02542	10.05365	1507.93823	-627.84448	3.88767	1551.74487	-524.33588	-111.60732	1459.83154	-523.60516	115.44969	1458.99036	-563.22656	-200.57217	1456.52893	-594.92297	209.86488	1468.68787	-675.44019	-87.84012	1469.48389	-681.07300	79.98604	1472.61890	-723.62360	-100.18748	1383.19556	-604.00830	-265.68253	1279.45020	-633.46741	-288.78488	1126.32959	-656.16699	-201.64613	1106.25916	-541.09253	-235.45370	1017.95367	-560.62793	-278.84979	915.34253	-499.69171	-214.78250	892.14746	-497.67764	-253.53934	843.63269	-486.30865	-208.66211	860.67358	-448.69968	-175.54309	822.51532	-408.63431	-169.48962	800.01007	-450.48999	-251.54349	776.75122	-431.30722	-213.39041	726.16064	-442.66623	-168.30984	699.87097	-627.87610	268.57611	1318.93286	-651.21460	307.89224	1142.19849	-689.96887	238.76161	1127.62927	-581.59265	287.36572	1039.15601	-634.53937	303.07785	948.30688	-561.88934	257.45871	899.06702	-573.11176	290.67636	841.18970	-548.87976	247.89496	836.71307	-547.88745	208.15477	789.24060	-542.05060	211.73112	727.14502	-557.02106	304.14334	766.68121	-563.50629	280.96155	711.05194	-582.24573	257.51651	666.70447	-722.72955	7.65461	1074.71399	-630.98450	-182.39532	1021.28992	-612.47296	194.56381	1014.79749	-624.50958	-142.49454	617.82092	-570.14233	-50.30414	528.28308	-631.86499	-111.54469	481.72818	-641.43585	1.63724	486.66675	-675.94873	-68.35505	304.01184	-839.46832	-106.54283	84.19201	-804.45776	-6.07800	98.05309	-900.29376	-47.04102	68.77506	-662.91205	-68.75948	45.58864	-732.42468	-25.26277	67.36981	-484.78613	176.06577	647.65930	-423.88699	147.59059	514.68530	-417.92056	30.07346	517.26630	-376.58438	97.50911	323.16891	-425.57230	108.98064	65.97213	-389.01212	19.30196	111.99676	-469.05728	42.22636	52.15724	-243.93726	68.70553	62.83804	-297.64743	38.89787	77.38023																																																																																																																															
190	1.575	-484.79950	9.79916	1785.90540	-383.39880	19.16622	1674.30481	-609.99463	4.33224	1685.70349	-426.46310	10.96764	1506.85815	-621.81079	5.65568	1549.94885	-519.55377	-109.20811	1459.09985	-515.48669	117.24853	1457.33130	-557.62976	-199.68962	1455.11511	-588.13971	211.11105	1467.42212	-669.80145	-85.61621	1469.21191	-674.26221	82.25809	1470.08362	-716.82135	-99.91934	1381.45837	-598.81433	-265.54330	1277.86670	-628.50043	-288.26477	1125.51794	-651.95697	-200.11380	1105.54102	-536.35840	-233.74150	1017.11121	-556.15637	-278.12326	914.40723	-495.00604	-213.67474	891.08514	-493.26770	-252.14740	842.23712	-482.85956	-208.18410	859.75726	-445.21280	-174.39056	821.06152	-405.42270	-167.95926	797.61725	-447.91574	-250.32367	775.67896	-428.51303	-212.07401	724.37805	-440.56299	-167.93001	698.58740	-620.66760	270.14020	1317.51636	-644.50507	309.84204	1141.28540	-682.02783	239.72556	1125.77747	-575.07794	288.23727	1038.16248	-627.70410	304.16074	947.22284	-554.46057	259.17078	898.72296	-565.02478	288.42313	839.05249	-540.33893	248.68561	835.73022	-541.21509	208.91205	786.62567	-532.59381	211.77795	725.69879	-547.94788	304.39749	765.69397	-554.84558	280.28598	709.97821	-572.37921	255.77660	665.08429	-715.34064	9.27806	1073.29858	-624.51758	-181.21994	1020.42975	-606.42358	195.83473	1013.74713	-619.03296	-141.11844	617.09021	-564.51733	-51.01521	527.06989	-626.97522	-111.80725	481.35410	-636.59625	2.45319	484.96732	-672.49512	-68.76359	303.56882	-837.63416	-105.86966	86.06474	-803.77985	-6.19879	98.84634	-900.48248	-46.79695	70.41667	-662.94672	-68.88264	45.54534	-731.77557	-25.25552	67.75760	-477.34729	174.66331	647.30737	-417.90079	147.51880	512.72925	-411.50711	31.02708	515.60974	-371.22809	96.84053	321.63159	-423.66031	107.89545	65.84316	-388.04178	17.64824	110.32445	-468.07590	40.81121	51.40933	-241.74268	69.68310	57.94952	-296.76965	36.85162	73.60426																																																																																																																															
191	1.583	-477.90887	11.90639	1784.45544	-376.72934	18.90989	1672.27478	-604.09412	5.94371	1685.67358	-419.47336	11.96592	1506.38892	-617.11731	7.61505	1550.29419	-513.59900	-107.65784	1458.59436	-508.92233	119.33143	1457.36682	-551.05615	-198.35115	1454.39294	-582.65936	212.61479	1466.21143	-663.74451	-84.67560	1468.18628	-667.86731	84.21408	1469.33777	-710.84589	-98.44897	1380.31470	-594.23163	-264.39951	1277.55371	-623.00311	-285.94098	1124.36487	-647.87317	-198.56622	1104.32397	-531.29565	-233.16278	1015.60120	-553.07397	-277.23230	913.70026	-492.08093	-212.63141	890.05261	-491.40533	-251.87912	840.91785	-478.49051	-208.21909	858.18140	-441.39734	-173.74677	818.88025	-402.30133	-167.65953	796.13745	-444.58090	-250.01172	773.84351	-425.86630	-211.10081	722.48254	-438.12048	-168.36559	696.45911	-613.38574	271.69980	1315.95544	-636.47046	311.49472	1140.00220	-674.60095	242.01006	1124.55811	-566.91663	289.10953	1036.37109	-620.16779	305.58542	946.52484	-545.62219	259.83017	897.30603	-557.00909	290.79248	838.40308	-532.81000	248.84418	834.28009	-532.43036	209.36189	785.60919	-525.78284	211.71822	725.53595	-540.15485	305.02359	764.07990	-545.42590	281.40836	708.07965	-563.81421	259.07834	664.64838	-708.32007	11.61893	1071.93896	-615.32037	-178.86168	1018.77277	-598.32507	196.14117	1012.18665	-613.12616	-140.77724	616.83881	-558.69226	-51.24262	525.89655	-621.57703	-112.14570	480.52936	-630.43402	4.00812	483.93027	-668.99994	-67.27353	303.56927	-836.71332	-105.75011	87.59584	-803.01666	-5.76500	100.51354	-899.85632	-47.67950	73.59084	-662.79395	-68.99419	45.58949	-730.99609	-24.78824	68.57581	-470.28146	174.79190	645.83997	-411.46207	148.16661	511.34930	-405.08865	30.55029	514.91895	-366.94144	96.22205	319.66211	-423.63568	106.28340	65.42436	-388.91000	15.96233	108.95963	-468.59116	40.46473	50.68333	-241.70976	69.34029	56.80608	-297.29242	35.31438	73.24921																																																																																																																															
192	1.592	-472.31363	11.82539	1784.60132	-371.33691	21.14341	1672.40625	-597.33319	7.43219	1684.01563	-413.12766	13.68094	1505.25684	-610.39069	9.61486	1547.79199	-507.14761	-106.70387	1457.59412	-503.11679	120.96772	1456.29321	-546.19916	-196.91150	1453.48181	-575.44537	215.39424	1464.89697	-657.23358	-83.07880	1466.95398	-661.37616	85.15163	1468.69751	-704.75482	-95.55115	1380.12549	-589.02332	-262.43469	1276.85803	-618.91504	-285.48404	1123.77075	-642.53198	-197.35405	1104.14014	-527.44019	-230.67015	1013.85016	-548.97559	-276.52264	912.55273	-487.95615	-212.03777	888.31232	-488.47781	-251.14230	839.32507	-475.23801	-207.41902	856.11249	-439.41553	-172.61314	817.10913	-399.25986	-166.94870	794.05707	-441.09561	-250.12338	772.05200	-422.35202	-210.23572	720.54169	-434.01318	-166.20587	695.01630	-606.38971	273.48636	1315.11096	-629.16980	312.47949	1139.25183	-666.74829	242.51747	1123.26245	-559.28857	291.20502	1035.39075	-611.60181	306.75653	945.00726	-536.82483	261.18619	896.31708	-548.79102	292.37234	837.35144	-526.30182	249.99234	833.02771	-523.92615	209.39450	784.80316	-518.98297	211.63834	724.84509	-531.11102	305.76453	763.94226	-537.51776	282.51065	706.81104	-556.30493	258.83337	663.16119	-701.43762	11.88186	1071.95178	-610.33466	-178.13542	1018.44983	-590.12897	198.98476	1010.79468	-606.70062	-139.65910	616.12738	-552.44073	-50.67303	524.97351	-615.96637	-110.30718	479.62708	-624.83337	3.49226	483.32410	-665.15637	-67.56200	303.43298	-835.95148	-106.47393	89.43170	-801.62183	-6.74236	102.59384	-898.60492	-47.83300	76.10624	-662.78741	-69.17964	45.48874	-729.70154	-24.67582	68.99405	-463.36481	174.89055	645.32129	-402.17133	147.96460	511.62482	-398.59750	30.51167	514.26422	-362.06842	95.64279	318.58386	-424.56607	106.55764	65.56745	-389.50687	15.26869	109.55861	-468.36847	40.44096	50.71862	-242.38817	67.68092	56.47601	-298.36670	34.36952	73.64364																																																																																																																															
